<svg width="306" height="83" viewBox="0 0 306 83" fill="none" xmlns="http://www.w3.org/2000/svg">
<mask id="mask0_112_42" style="mask-type:luminance" maskUnits="userSpaceOnUse" x="0" y="14" width="88" height="55">
<path d="M3.8147e-05 14.0943H87.1519V68.9057H3.8147e-05V14.0943Z" fill="white"/>
</mask>
<g mask="url(#mask0_112_42)">
<path d="M71.9418 14.0943H36.4817C33.8152 14.0951 31.1961 14.4647 28.8866 15.1661C26.5773 15.8674 24.659 16.8758 23.324 18.0903L21.9707 19.3274L21.9587 19.3337V19.34C21.9587 19.3463 21.9453 19.3534 21.9333 19.366L2.02767 37.5048C0.696396 38.7211 -0.00430298 40.1 -0.00430298 41.5035C-0.00430298 42.907 0.696396 44.286 2.02767 45.5023L23.32 64.902C24.8061 66.2576 27.0196 67.3523 29.6831 68.0488C29.71 68.0559 29.7351 68.0646 29.7579 68.0748C29.7721 68.0774 29.7845 68.0821 29.794 68.0882H29.8073C29.8136 68.0918 29.8222 68.094 29.8314 68.0945C31.901 68.6266 34.1742 68.9033 36.4777 68.9036H71.4288C72.0881 68.9069 72.7468 68.881 73.3979 68.8262C60.785 65.458 50.9106 59.8049 45.5942 52.9086H45.2736L36.2279 44.6714C35.169 43.7055 34.6117 42.6101 34.6117 41.4951C34.6117 40.38 35.169 39.2846 36.2279 38.3187L45.2736 30.0816H45.3604C50.4929 23.2202 60.1226 17.5518 72.5082 14.1014C72.3118 14.0943 72.1395 14.0943 71.9418 14.0943Z" fill="url(#paint0_linear_112_42)"/>
<path d="M71.9431 52.9108H45.5915C50.9079 59.8071 60.7823 65.4602 73.3953 68.8284C74.0214 68.7903 74.6425 68.7318 75.2549 68.6534C76.8015 68.4562 78.2828 68.1375 79.6488 67.708C81.7684 67.0628 83.5567 66.1552 84.8586 65.0639C86.1604 63.9727 86.9365 62.7308 87.1194 61.446C87.2579 60.3526 86.9681 59.256 86.2681 58.224C85.5682 57.192 84.4728 56.2466 83.05 55.4464C81.6272 54.6462 79.9073 54.0083 77.9967 53.5721C76.0862 53.136 74.0257 52.9108 71.9431 52.9108Z" fill="url(#paint1_linear_112_42)"/>
<path d="M72.5096 14.1014C60.1219 17.5519 50.4905 23.2212 45.3578 30.0837H71.4302C75.3529 30.1084 79.1487 29.353 82.0584 27.9686C84.9681 26.5842 86.7771 24.6728 87.1235 22.6169C87.3089 21.1609 86.7327 19.706 85.4576 18.4101C85.4576 18.4084 85.4563 18.4068 85.4541 18.4056C85.4518 18.4044 85.4488 18.4038 85.4456 18.4038C85.439 18.3977 85.4349 18.391 85.4336 18.3841C84.3811 17.3323 82.8977 16.4167 81.0905 15.7034C79.2833 14.9901 77.1975 14.4969 74.9838 14.2595C74.1691 14.17 73.3414 14.1171 72.5096 14.1014Z" fill="url(#paint2_linear_112_42)"/>
<g style="mix-blend-mode:multiply" opacity="0.08">
<path d="M57.669 52.9108H45.5948C50.9102 59.8067 60.783 65.4598 73.3945 68.8284C74.0207 68.7903 74.6417 68.7318 75.2542 68.6534C68.3056 63.7636 62.4079 58.4838 57.669 52.9108Z" fill="black"/>
</g>
<g style="mix-blend-mode:multiply" opacity="0.08">
<path d="M72.509 14.1015C60.1211 17.552 50.4898 23.2213 45.3572 30.0838H57.6158C62.3053 24.4946 68.1281 19.1882 74.9832 14.2568C74.1683 14.1683 73.3406 14.1163 72.509 14.1015Z" fill="black"/>
</g>
<g style="mix-blend-mode:screen" opacity="0.4">
<path d="M36.5315 16.0371H36.4821C34.4653 16.0397 32.485 16.3201 30.7383 16.8503C28.9914 17.3806 27.539 18.1422 26.5253 19.0595L5.2316 38.474C4.22322 39.3947 3.69246 40.4387 3.69246 41.5013C3.69246 42.564 4.22322 43.608 5.2316 44.5287L21.7866 59.6197L21.8481 59.6717L26.5239 63.9327C27.4571 64.7804 28.7659 65.4969 30.3387 66.0212C31.9117 66.5455 33.7021 66.862 35.5576 66.9438C25.7839 59.7294 20.4576 51.1096 20.2992 42.2506C20.1408 33.3914 25.1579 24.7204 34.6719 17.4105L34.7574 17.3452L34.7948 17.3128C35.3585 16.8791 35.941 16.4581 36.5315 16.0371Z" fill="white"/>
</g>
<g style="mix-blend-mode:screen" opacity="0.6">
<path d="M29.8108 68.0902C29.7964 68.0832 29.7835 68.0832 29.7576 68.077C29.7728 68.0795 29.7862 68.0841 29.7964 68.0902H29.8108Z" fill="white"/>
</g>
<g style="mix-blend-mode:multiply" opacity="0.25">
<path d="M21.9333 19.366L2.02767 37.5048C0.696398 38.7211 -0.00430679 40.1 -0.00430679 41.5035C-0.00430679 42.907 0.696398 44.286 2.02767 45.5023L23.32 64.902C24.8061 66.2576 27.0196 67.3523 29.6831 68.0488C29.5108 67.9975 29.2155 67.8998 28.8094 67.7578C27.888 67.4175 27.0343 67.0289 26.2617 66.5981C25.0828 65.9326 24.1149 65.1717 23.3948 64.3446C22.4596 63.3866 21.4002 62.3062 20.2059 61.1394C17.868 58.7883 15.0732 56.0688 12.0219 53.1743C10.4829 51.7299 8.93184 50.2278 7.28329 48.7187C6.45767 47.961 5.63339 47.2032 4.80911 46.4392L3.56534 45.2928C3.17324 44.9444 2.83204 44.581 2.54468 44.2054C1.38067 42.7313 1.18549 41.0949 1.99026 39.5558C2.40881 38.7875 3.02602 38.0532 3.82452 37.3733C4.61139 36.6283 5.38758 35.8973 6.1504 35.1712C9.20304 32.2704 11.9965 29.5481 14.3357 27.206C18.7698 22.8109 21.598 19.735 21.9333 19.366Z" fill="black"/>
</g>
<g style="mix-blend-mode:multiply" opacity="0.25">
<path d="M72.5076 14.1015L70.1683 14.7032L67.8678 15.3639L65.6395 16.0829L63.4739 16.8561L61.3805 17.6918L59.3498 18.5726L57.4047 19.5116L55.5464 20.4957L53.7749 21.5254L52.0876 22.6008L50.5005 23.7142L49.0109 24.8669L47.6202 26.0583L46.3284 27.2828L45.1581 28.5388L44.4073 29.4526L44.1 29.7246C42.0199 31.5634 39.9158 33.3965 37.8718 35.2486L34.7991 38.0398C33.678 39.097 33.085 40.2866 33.0758 41.4973C33.0814 42.1005 33.2305 42.701 33.5193 43.2847C33.6659 43.5748 33.8443 43.8603 34.0537 44.1395C34.2644 44.4149 34.507 44.6832 34.7804 44.9429L37.8691 47.7404C39.9131 49.5925 42.0173 51.4249 44.0853 53.2644L44.4861 53.6271H44.7079L45.4213 54.4705L46.6236 55.7273L47.9529 56.951L49.381 58.1424L50.9187 59.2952L52.5432 60.4156L54.2666 61.484L56.0888 62.5074L57.9845 63.4851L59.9777 64.4178L62.0578 65.2929L64.1873 66.1223L66.4023 66.8864L68.6667 67.5984L71.006 68.2465L73.3933 68.8292L71.1409 68.1101L68.9753 67.3461L66.8579 66.5363L64.8152 65.6879L62.846 64.7946L60.9503 63.8618L59.1401 62.8841L57.4034 61.8804L55.7548 60.8317L54.2038 59.7436L52.7262 58.6359L51.3609 57.4901L50.081 56.3177L48.8987 55.113L47.8153 53.8892L47.0524 52.9115H45.2676L36.2219 44.6744C35.1632 43.7084 34.6058 42.6131 34.6058 41.498C34.6058 40.383 35.1632 39.2876 36.2219 38.3216L45.2676 30.0845H46.8066L47.5574 29.1004L48.6035 27.883L49.7364 26.6881L50.9788 25.5157L52.3147 24.3763L53.7495 23.2601L55.2632 22.1699L56.8663 21.1212L58.5656 20.1105L60.3398 19.1328L62.1861 18.1874L64.1192 17.2877L66.1124 16.4259L68.1804 15.6099L70.318 14.8367L72.5076 14.1015Z" fill="black"/>
</g>
<g style="mix-blend-mode:screen" opacity="0.4">
<path d="M34.6737 17.4106L32.9624 18.6533L31.239 20.0394C30.1319 20.9845 29.0899 21.9452 28.1129 22.9212C27.1403 23.9053 26.2542 24.9111 25.4544 25.9387C24.6421 26.9621 23.9167 28.0045 23.2634 29.0603C21.9357 31.1715 20.9477 33.3377 20.3096 35.536C19.977 36.6367 19.7432 37.7445 19.5842 38.8585C19.4119 39.9916 19.3491 41.0663 19.3624 42.193C19.3624 43.3071 19.46 44.4212 19.6203 45.5346L19.9409 47.199L20.3831 48.8501L20.9616 50.4956L21.6509 52.127L22.4632 53.7394L23.4117 55.3392L24.4698 56.913L25.6521 58.4593L26.9439 59.9874L28.3467 61.4831L29.8817 62.9416L31.5182 64.3727L33.2549 65.7652L34.3143 66.5489C31.4823 66.2632 28.9592 65.4261 27.2485 64.2047C26.7569 63.8357 26.3387 63.4533 25.8698 63.0646L24.5339 61.9119L21.8513 59.6718L26.5271 63.9327C27.4604 64.7805 28.7691 65.497 30.342 66.0213C31.9149 66.5456 33.7053 66.8621 35.5608 66.9439C25.7871 59.7294 20.4608 51.1097 20.3024 42.2506C20.144 33.3915 25.1598 24.7205 34.6737 17.4106Z" fill="white"/>
</g>
<g style="mix-blend-mode:screen" opacity="0.5">
<path d="M71.9417 52.9108H60.1626C60.1626 52.9108 63.3689 53.1308 68.1876 53.2798C69.382 53.3255 70.6992 53.3641 72.0619 53.3965C73.41 53.446 74.7413 53.5829 76.0256 53.8041C78.7905 54.2963 81.2181 55.2065 83.0046 56.421C83.8979 57.0346 84.6178 57.7128 85.1421 58.4348C85.6167 59.135 85.9228 59.8637 86.0532 60.6039C86.0532 60.8049 86.0653 60.9989 86.0653 61.1936L86.0773 61.4523L86.0399 61.718C86.0059 62.0643 85.9196 62.4086 85.782 62.7477C85.5262 63.3801 85.1252 63.9938 84.5877 64.5752C83.7525 65.4637 82.6326 66.2697 81.2772 66.958C80.7722 67.2111 80.3661 67.4051 80.0749 67.5281C79.8531 67.6187 79.7062 67.6834 79.6447 67.7094C81.7643 67.0642 83.5526 66.1566 84.8544 65.0653C86.1563 63.9741 86.9324 62.7322 87.1153 61.4474C87.2542 60.354 86.9648 59.2574 86.2651 58.2253C85.5655 57.1932 84.4704 56.2477 83.0478 55.4474C81.6253 54.647 79.9055 54.009 77.9951 53.5727C76.0847 53.1363 74.0243 52.911 71.9417 52.9108Z" fill="white"/>
</g>
<g style="mix-blend-mode:screen" opacity="0.5">
<path d="M85.4576 18.41C85.507 18.488 85.6793 18.7727 85.8891 19.2261C86.2218 19.9485 86.3909 20.6891 86.3927 21.4324C86.3884 21.919 86.3021 22.4045 86.1349 22.8832C86.0576 23.1416 85.9464 23.3969 85.8022 23.6472C85.7287 23.7702 85.6686 23.8996 85.5938 24.0289C85.519 24.1582 85.4081 24.2883 85.3266 24.4176C84.9231 24.9392 84.4285 25.4399 83.8491 25.9134C83.2326 26.3952 82.5186 26.8404 81.7196 27.2411C80.9373 27.651 80.0707 28.0139 79.1358 28.3229C78.2206 28.6258 77.252 28.8817 76.2435 29.0869C75.764 29.1886 75.2733 29.275 74.774 29.3456C74.3064 29.4232 73.8292 29.4838 73.3458 29.5269C72.8664 29.5803 72.3815 29.6193 71.8936 29.6436L71.5369 29.6633C71.4875 29.6696 71.3901 29.6759 71.3901 29.6759L71.2177 29.6822C70.984 29.6956 70.7487 29.7019 70.5283 29.7153C66.9092 29.8706 64.5086 30.0843 64.5086 30.0843H71.4302C75.3528 30.109 79.1486 29.3536 82.0583 27.9692C84.968 26.5848 86.777 24.6735 87.1234 22.6175C87.309 21.1613 86.7329 19.7061 85.4576 18.41Z" fill="white"/>
</g>
</g>
<path d="M52.9428 37.9004C52.8922 37.5879 52.7721 37.3242 52.5825 37.1094C52.4055 36.8945 52.2096 36.7188 51.9947 36.582C51.7545 36.416 51.489 36.2793 51.1982 36.1719L53.322 33.3008C53.7897 33.4277 54.2575 33.5986 54.7252 33.8135C55.1171 33.999 55.528 34.2383 55.9578 34.5312C56.4002 34.8145 56.7858 35.166 57.1145 35.5859C57.7465 35.2734 58.3912 34.9805 59.0486 34.707C59.7186 34.4238 60.4139 34.1797 61.1344 33.9746C61.8677 33.7695 62.6325 33.6084 63.4289 33.4912C64.2379 33.3643 65.1039 33.3008 66.0267 33.3008C67.9735 33.3008 69.6422 33.4277 71.0327 33.6816C72.4359 33.9258 73.58 34.2969 74.4649 34.7949C75.3624 35.2832 76.0198 35.8936 76.437 36.626C76.8541 37.3584 77.0627 38.2129 77.0627 39.1895V50H72.0946V40.0977C72.0946 39.5508 71.9998 39.082 71.8102 38.6914C71.6206 38.291 71.3614 37.9541 71.0327 37.6807C70.7167 37.3975 70.3438 37.168 69.914 36.9922C69.4841 36.8164 69.0354 36.6846 68.5676 36.5967C68.1125 36.499 67.6448 36.4355 67.1644 36.4062C66.6841 36.3672 66.229 36.3477 65.7992 36.3477C64.9901 36.3477 64.219 36.3916 63.4858 36.4795C62.7526 36.5674 62.0573 36.6895 61.3999 36.8457C60.7426 36.9922 60.1231 37.168 59.5416 37.373C58.9601 37.5781 58.4165 37.793 57.9109 38.0176V50H52.9428V37.9004Z" fill="url(#paint3_linear_112_42)"/>
<path d="M95.494 33.0371C96.5432 33.0371 97.5988 33.0762 98.6607 33.1543C99.7226 33.2324 100.74 33.3594 101.714 33.5352C102.687 33.7109 103.597 33.9307 104.444 34.1943C105.291 34.458 106.024 34.7754 106.644 35.1465C107.276 35.5176 107.769 35.9473 108.123 36.4355C108.477 36.9141 108.654 37.4512 108.654 38.0469L103.799 38.6035C103.799 38.1836 103.566 37.8076 103.098 37.4756C102.63 37.1338 102.011 36.8506 101.24 36.626C100.468 36.3916 99.5835 36.2158 98.5848 36.0986C97.5862 35.9717 96.5559 35.9082 95.494 35.9082C94.4827 35.9082 93.484 35.9668 92.498 36.084C91.5119 36.1914 90.627 36.3574 89.8433 36.582C89.0721 36.8066 88.4401 37.0898 87.947 37.4316C87.4667 37.7637 87.2265 38.1543 87.2265 38.6035V44.6973C87.2265 45.1465 87.4667 45.5371 87.947 45.8691C88.4401 46.1914 89.0721 46.4648 89.8433 46.6895C90.627 46.9043 91.5119 47.0654 92.498 47.1729C93.484 47.2803 94.4827 47.334 95.494 47.334C96.5559 47.334 97.5862 47.2754 98.5848 47.1582C99.5835 47.041 100.468 46.875 101.24 46.6602C102.011 46.4355 102.63 46.1621 103.098 45.8398C103.566 45.5078 103.799 45.127 103.799 44.6973L108.654 45.6348C108.654 46.1621 108.477 46.6455 108.123 47.085C107.769 47.5244 107.276 47.9199 106.644 48.2715C106.024 48.6133 105.291 48.9111 104.444 49.165C103.597 49.4189 102.687 49.6289 101.714 49.7949C100.74 49.9609 99.7226 50.083 98.6607 50.1611C97.5988 50.249 96.5432 50.293 95.494 50.293C94.4448 50.293 93.3892 50.249 92.3273 50.1611C91.2781 50.083 90.2667 49.9609 89.2934 49.7949C88.32 49.6289 87.4098 49.4189 86.5628 49.165C85.7285 48.9111 84.9953 48.6133 84.3632 48.2715C83.7437 47.9199 83.257 47.5293 82.9031 47.0996C82.5491 46.6602 82.3721 46.1719 82.3721 45.6348V38.0469C82.3721 37.4512 82.5491 36.9141 82.9031 36.4355C83.257 35.9473 83.7437 35.5176 84.3632 35.1465C84.9953 34.7754 85.7285 34.458 86.5628 34.1943C87.4098 33.9307 88.32 33.7109 89.2934 33.5352C90.2667 33.3594 91.2781 33.2324 92.3273 33.1543C93.3892 33.0762 94.4448 33.0371 95.494 33.0371Z" fill="url(#paint4_linear_112_42)"/>
<path d="M141.307 30.2832C140.788 30.2832 140.314 30.3223 139.885 30.4004C139.455 30.4785 139.076 30.6006 138.747 30.7666C138.431 30.9229 138.184 31.123 138.007 31.3672C137.83 31.6016 137.742 31.875 137.742 32.1875V33.0957H142.634V35.5566H137.742V50H132.812V35.5566H129.74V33.0957H132.812V32.5977C132.812 31.9043 133.001 31.2598 133.381 30.6641C133.76 30.0684 134.31 29.5557 135.03 29.126C135.763 28.6865 136.655 28.3447 137.704 28.1006C138.753 27.8564 139.954 27.7344 141.307 27.7344V30.2832Z" fill="url(#paint5_linear_112_42)"/>
<path d="M164.554 33.3008C164.554 34.3164 164.51 35.376 164.422 36.4795C164.333 37.5732 164.163 38.7012 163.91 39.8633H159.321C159.435 39.5312 159.542 39.1699 159.643 38.7793C159.719 38.4473 159.789 38.0615 159.852 37.6221C159.928 37.1729 159.966 36.6992 159.966 36.2012C158.853 36.2207 157.93 36.3037 157.197 36.4502C156.477 36.5869 155.876 36.7529 155.396 36.9482C154.915 37.1338 154.523 37.3242 154.22 37.5195C153.917 37.7148 153.645 37.8711 153.405 37.9883V50H148.55V37.9004C148.5 37.5879 148.38 37.3242 148.19 37.1094C148.013 36.8945 147.823 36.7188 147.621 36.582C147.394 36.416 147.134 36.2793 146.844 36.1719L148.854 33.3008C149.321 33.4277 149.783 33.5986 150.238 33.8135C150.63 33.999 151.041 34.2383 151.47 34.5312C151.913 34.8145 152.305 35.166 152.646 35.5859C153.291 35.2441 153.885 34.9561 154.429 34.7217C154.972 34.4775 155.497 34.2725 156.002 34.1064C156.521 33.9404 157.052 33.8135 157.595 33.7256C158.152 33.6279 158.758 33.5498 159.416 33.4912C160.086 33.4326 160.832 33.3936 161.653 33.374C162.488 33.3447 163.455 33.3203 164.554 33.3008Z" fill="url(#paint6_linear_112_42)"/>
<path d="M190.836 44.0234C190.52 43.8086 190.128 43.5986 189.66 43.3936C189.193 43.1885 188.617 43.0078 187.935 42.8516C187.252 42.6855 186.437 42.5537 185.489 42.4561C184.553 42.3486 183.453 42.2949 182.189 42.2949C181.064 42.2949 179.996 42.3145 178.985 42.3535C177.986 42.3828 177.107 42.4805 176.349 42.6465C175.59 42.8027 174.99 43.0566 174.548 43.4082C174.105 43.7598 173.884 44.248 173.884 44.873V46.748C174.996 46.8848 176.223 46.9971 177.563 47.085C178.903 47.1729 180.394 47.2168 182.038 47.2168C183.352 47.2168 184.749 47.1826 186.228 47.1143C187.72 47.0361 189.256 46.8848 190.836 46.6602V44.0234ZM182.303 33.3008C182.935 33.3008 183.7 33.3252 184.598 33.374C185.495 33.4229 186.431 33.5107 187.404 33.6377C188.377 33.7549 189.338 33.9209 190.286 34.1357C191.247 34.3408 192.107 34.6143 192.865 34.9561C193.636 35.2881 194.256 35.6885 194.723 36.1572C195.191 36.626 195.425 37.1777 195.425 37.8125V49.1504C194.363 49.3164 193.162 49.458 191.822 49.5752C190.672 49.6826 189.3 49.7803 187.707 49.8682C186.114 49.9561 184.338 50 182.379 50C180.432 50 178.359 49.9365 176.159 49.8096C173.972 49.6826 171.684 49.4629 169.295 49.1504V43.877C169.295 43.3105 169.466 42.8174 169.807 42.3975C170.161 41.9678 170.641 41.6016 171.248 41.2988C171.855 40.9961 172.569 40.7471 173.391 40.5518C174.213 40.3564 175.097 40.2002 176.046 40.083C176.994 39.9658 177.98 39.8877 179.004 39.8486C180.028 39.7998 181.052 39.7754 182.076 39.7754C183.63 39.7754 184.951 39.8535 186.039 40.0098C187.138 40.1562 188.049 40.3174 188.769 40.4932C189.604 40.708 190.292 40.9473 190.836 41.2109V38.8379C190.836 38.4375 190.71 38.0957 190.457 37.8125C190.204 37.5195 189.863 37.2754 189.433 37.0801C189.003 36.875 188.51 36.7139 187.954 36.5967C187.398 36.4697 186.816 36.3721 186.209 36.3037C185.602 36.2354 184.983 36.1914 184.351 36.1719C183.732 36.1523 183.15 36.1426 182.606 36.1426C182.038 36.1426 181.431 36.1572 180.786 36.1865C180.141 36.2061 179.497 36.25 178.852 36.3184C178.22 36.3867 177.607 36.4844 177.013 36.6113C176.431 36.7285 175.913 36.8896 175.458 37.0947C175.003 37.2998 174.636 37.5488 174.358 37.8418C174.092 38.125 173.96 38.4668 173.96 38.8672L169.257 37.9297C169.257 37.2754 169.466 36.709 169.883 36.2305C170.3 35.7422 170.85 35.3271 171.533 34.9854C172.228 34.6436 173.024 34.3652 173.922 34.1504C174.819 33.9258 175.748 33.7549 176.709 33.6377C177.683 33.5107 178.65 33.4229 179.61 33.374C180.571 33.3252 181.469 33.3008 182.303 33.3008Z" fill="url(#paint7_linear_112_42)"/>
<path d="M202.024 37.9004C201.973 37.5879 201.853 37.3242 201.663 37.1094C201.487 36.8945 201.291 36.7188 201.076 36.582C200.835 36.416 200.57 36.2793 200.279 36.1719L202.403 33.3008C202.871 33.4277 203.339 33.5986 203.806 33.8135C204.198 33.999 204.609 34.2383 205.039 34.5312C205.481 34.8145 205.867 35.166 206.195 35.5859C206.828 35.2734 207.472 34.9805 208.13 34.707C208.8 34.4238 209.495 34.1797 210.215 33.9746C210.949 33.7695 211.713 33.6084 212.51 33.4912C213.319 33.3643 214.185 33.3008 215.108 33.3008C217.055 33.3008 218.723 33.4277 220.114 33.6816C221.517 33.9258 222.661 34.2969 223.546 34.7949C224.443 35.2832 225.101 35.8936 225.518 36.626C225.935 37.3584 226.144 38.2129 226.144 39.1895V50H221.176V40.0977C221.176 39.5508 221.081 39.082 220.891 38.6914C220.702 38.291 220.442 37.9541 220.114 37.6807C219.798 37.3975 219.425 37.168 218.995 36.9922C218.565 36.8164 218.116 36.6846 217.649 36.5967C217.194 36.499 216.726 36.4355 216.245 36.4062C215.765 36.3672 215.31 36.3477 214.88 36.3477C214.071 36.3477 213.3 36.3916 212.567 36.4795C211.834 36.5674 211.138 36.6895 210.481 36.8457C209.824 36.9922 209.204 37.168 208.623 37.373C208.041 37.5781 207.498 37.793 206.992 38.0176V50H202.024V37.9004Z" fill="url(#paint8_linear_112_42)"/>
<path d="M244.575 33.0371C245.624 33.0371 246.68 33.0762 247.742 33.1543C248.804 33.2324 249.821 33.3594 250.795 33.5352C251.768 33.7109 252.678 33.9307 253.525 34.1943C254.372 34.458 255.105 34.7754 255.725 35.1465C256.357 35.5176 256.85 35.9473 257.204 36.4355C257.558 36.9141 257.735 37.4512 257.735 38.0469L252.88 38.6035C252.88 38.1836 252.647 37.8076 252.179 37.4756C251.711 37.1338 251.092 36.8506 250.321 36.626C249.549 36.3916 248.665 36.2158 247.666 36.0986C246.667 35.9717 245.637 35.9082 244.575 35.9082C243.564 35.9082 242.565 35.9668 241.579 36.084C240.593 36.1914 239.708 36.3574 238.924 36.582C238.153 36.8066 237.521 37.0898 237.028 37.4316C236.548 37.7637 236.307 38.1543 236.307 38.6035V44.6973C236.307 45.1465 236.548 45.5371 237.028 45.8691C237.521 46.1914 238.153 46.4648 238.924 46.6895C239.708 46.9043 240.593 47.0654 241.579 47.1729C242.565 47.2803 243.564 47.334 244.575 47.334C245.637 47.334 246.667 47.2754 247.666 47.1582C248.665 47.041 249.549 46.875 250.321 46.6602C251.092 46.4355 251.711 46.1621 252.179 45.8398C252.647 45.5078 252.88 45.127 252.88 44.6973L257.735 45.6348C257.735 46.1621 257.558 46.6455 257.204 47.085C256.85 47.5244 256.357 47.9199 255.725 48.2715C255.105 48.6133 254.372 48.9111 253.525 49.165C252.678 49.4189 251.768 49.6289 250.795 49.7949C249.821 49.9609 248.804 50.083 247.742 50.1611C246.68 50.249 245.624 50.293 244.575 50.293C243.526 50.293 242.47 50.249 241.408 50.1611C240.359 50.083 239.348 49.9609 238.374 49.7949C237.401 49.6289 236.491 49.4189 235.644 49.165C234.809 48.9111 234.076 48.6133 233.444 48.2715C232.825 47.9199 232.338 47.5293 231.984 47.0996C231.63 46.6602 231.453 46.1719 231.453 45.6348V38.0469C231.453 37.4512 231.63 36.9141 231.984 36.4355C232.338 35.9473 232.825 35.5176 233.444 35.1465C234.076 34.7754 234.809 34.458 235.644 34.1943C236.491 33.9307 237.401 33.7109 238.374 33.5352C239.348 33.3594 240.359 33.2324 241.408 33.1543C242.47 33.0762 243.526 33.0371 244.575 33.0371Z" fill="url(#paint9_linear_112_42)"/>
<path d="M275.332 33.3008C275.976 33.3008 276.754 33.3252 277.664 33.374C278.574 33.4229 279.516 33.5107 280.489 33.6377C281.476 33.7549 282.449 33.9258 283.41 34.1504C284.37 34.3652 285.23 34.6436 285.989 34.9854C286.76 35.3271 287.379 35.7422 287.847 36.2305C288.327 36.709 288.567 37.2754 288.567 37.9297V42.8809H266.837V46.6309C268.366 46.7969 269.839 46.9141 271.255 46.9824C272.671 47.041 274.03 47.0703 275.332 47.0703C277.316 47.0703 279.112 47.0117 280.717 46.8945C282.335 46.7773 283.732 46.6455 284.908 46.499C286.26 46.333 287.48 46.1426 288.567 45.9277V49.1797C286.165 49.4727 283.846 49.6826 281.608 49.8096C279.383 49.9365 277.291 50 275.332 50C273.36 50 271.571 49.9609 269.965 49.8828C268.36 49.7949 266.982 49.6973 265.832 49.5898C264.492 49.4727 263.284 49.3359 262.21 49.1797V37.9297C262.21 37.2754 262.418 36.709 262.836 36.2305C263.253 35.7422 263.809 35.3271 264.504 34.9854C265.2 34.6436 265.996 34.3652 266.894 34.1504C267.804 33.9258 268.746 33.7549 269.719 33.6377C270.692 33.5107 271.659 33.4229 272.62 33.374C273.594 33.3252 274.497 33.3008 275.332 33.3008ZM266.837 40.5371H283.865V38.8379C283.865 38.4375 283.738 38.0957 283.486 37.8125C283.233 37.5195 282.891 37.2754 282.462 37.0801C282.044 36.8848 281.551 36.7285 280.982 36.6113C280.426 36.4844 279.845 36.3916 279.238 36.333C278.631 36.2646 278.018 36.2207 277.399 36.2012C276.792 36.1816 276.217 36.1719 275.673 36.1719C275.104 36.1719 274.491 36.1816 273.834 36.2012C273.189 36.2207 272.538 36.2646 271.881 36.333C271.223 36.4014 270.591 36.499 269.984 36.626C269.378 36.7432 268.84 36.9043 268.373 37.1094C267.905 37.3047 267.532 37.5488 267.254 37.8418C266.976 38.125 266.837 38.4668 266.837 38.8672V40.5371Z" fill="url(#paint10_linear_112_42)"/>
<defs>
<linearGradient id="paint0_linear_112_42" x1="4.91372" y1="860.19" x2="4.91372" y2="826.916" gradientUnits="userSpaceOnUse">
<stop stop-color="#F80300"/>
<stop offset="0.033" stop-color="#F81000"/>
<stop offset="0.158" stop-color="#F93F00"/>
<stop offset="0.288" stop-color="#FA6800"/>
<stop offset="0.419" stop-color="#FA8900"/>
<stop offset="0.554" stop-color="#FBA300"/>
<stop offset="0.693" stop-color="#FBB500"/>
<stop offset="0.838" stop-color="#FBC000"/>
<stop offset="1" stop-color="#FCC400"/>
</linearGradient>
<linearGradient id="paint1_linear_112_42" x1="41.7262" y1="814.046" x2="41.7262" y2="836.777" gradientUnits="userSpaceOnUse">
<stop stop-color="#3E6896"/>
<stop offset="0.247" stop-color="#355881"/>
<stop offset="0.75" stop-color="#1F324E"/>
<stop offset="1" stop-color="#131D32"/>
</linearGradient>
<linearGradient id="paint2_linear_112_42" x1="-31.9714" y1="814.074" x2="-31.9714" y2="836.805" gradientUnits="userSpaceOnUse">
<stop stop-color="#3E6896"/>
<stop offset="0.247" stop-color="#355881"/>
<stop offset="0.75" stop-color="#1F324E"/>
<stop offset="1" stop-color="#131D32"/>
</linearGradient>
<linearGradient id="paint3_linear_112_42" x1="83.0787" y1="58" x2="170.035" y2="58" gradientUnits="userSpaceOnUse">
<stop offset="0.953125" stop-color="#FCC401"/>
<stop offset="1" stop-color="#3E6896"/>
</linearGradient>
<linearGradient id="paint4_linear_112_42" x1="83.0787" y1="58" x2="170.035" y2="58" gradientUnits="userSpaceOnUse">
<stop offset="0.953125" stop-color="#FCC401"/>
<stop offset="1" stop-color="#3E6896"/>
</linearGradient>
<linearGradient id="paint5_linear_112_42" x1="83.0787" y1="58" x2="170.035" y2="58" gradientUnits="userSpaceOnUse">
<stop offset="0.953125" stop-color="#FCC401"/>
<stop offset="1" stop-color="#3E6896"/>
</linearGradient>
<linearGradient id="paint6_linear_112_42" x1="83.0787" y1="58" x2="170.035" y2="58" gradientUnits="userSpaceOnUse">
<stop offset="0.953125" stop-color="#FCC401"/>
<stop offset="1" stop-color="#3E6896"/>
</linearGradient>
<linearGradient id="paint7_linear_112_42" x1="83.0787" y1="58" x2="170.035" y2="58" gradientUnits="userSpaceOnUse">
<stop offset="0.953125" stop-color="#FCC401"/>
<stop offset="1" stop-color="#3E6896"/>
</linearGradient>
<linearGradient id="paint8_linear_112_42" x1="83.0787" y1="58" x2="170.035" y2="58" gradientUnits="userSpaceOnUse">
<stop offset="0.953125" stop-color="#FCC401"/>
<stop offset="1" stop-color="#3E6896"/>
</linearGradient>
<linearGradient id="paint9_linear_112_42" x1="83.0787" y1="58" x2="170.035" y2="58" gradientUnits="userSpaceOnUse">
<stop offset="0.953125" stop-color="#FCC401"/>
<stop offset="1" stop-color="#3E6896"/>
</linearGradient>
<linearGradient id="paint10_linear_112_42" x1="83.0787" y1="58" x2="170.035" y2="58" gradientUnits="userSpaceOnUse">
<stop offset="0.953125" stop-color="#FCC401"/>
<stop offset="1" stop-color="#3E6896"/>
</linearGradient>
</defs>
</svg>
