<svg width="98" height="49" viewBox="0 0 98 49" fill="none" xmlns="http://www.w3.org/2000/svg">
<path d="M75.6265 0.694336C78.8849 0.694336 82.3232 0.81071 85.9414 1.04346C89.5807 1.2762 93.3999 1.73112 97.3989 2.4082V10.4697C95.6216 9.96191 93.8231 9.54932 92.0034 9.23193C90.1838 8.89339 88.3535 8.62891 86.5127 8.43848C84.693 8.24805 82.8734 8.11051 81.0537 8.02588C79.234 7.94124 77.425 7.88835 75.6265 7.86719C74.759 7.86719 73.7962 7.88835 72.7383 7.93066C71.7015 7.95182 70.5801 7.99414 69.374 8.05762C68.1891 8.12109 66.9513 8.21631 65.6606 8.34326C64.37 8.47021 63.0581 8.62891 61.7251 8.81934V20.3721H89.4644V28.1797H61.7251V49H53.9175V2.4082C57.8742 1.73112 61.6722 1.2762 65.3115 1.04346C68.972 0.81071 72.4103 0.694336 75.6265 0.694336Z" fill="url(#paint0_linear_121_213)"/>
<mask id="mask0_121_213" style="mask-type:luminance" maskUnits="userSpaceOnUse" x="0" y="0" width="49" height="48">
<path d="M0 0H49V47.7124H0V0Z" fill="white"/>
</mask>
<g mask="url(#mask0_121_213)">
<path d="M40.4484 0H20.5114C19.0122 0.000682891 17.5396 0.322405 16.2412 0.932913C14.9428 1.54342 13.8642 2.42125 13.1136 3.47839L12.3528 4.55526L12.346 4.56076V4.56627C12.346 4.57178 12.3385 4.5779 12.3317 4.58891L1.14006 20.3784C0.391563 21.4372 -0.00239563 22.6375 -0.00239563 23.8593C-0.00239563 25.081 0.391563 26.2814 1.14006 27.3401L13.1114 44.2273C13.9469 45.4073 15.1915 46.3602 16.689 46.9666C16.7041 46.9727 16.7182 46.9803 16.731 46.9892C16.739 46.9915 16.746 46.9955 16.7513 47.0008H16.7588C16.7624 47.004 16.7672 47.0059 16.7723 47.0063C17.936 47.4695 19.214 47.7104 20.5092 47.7106H40.1599C40.5306 47.7135 40.901 47.6909 41.2671 47.6433C34.1756 44.7113 28.6239 39.7904 25.6348 33.7872H25.4545L20.3687 26.6169C19.7734 25.7761 19.46 24.8226 19.46 23.8519C19.46 22.8813 19.7734 21.9278 20.3687 21.087L25.4545 13.9166H25.5034C28.389 7.94395 33.8032 3.00964 40.7668 0.00611867C40.6564 1.40179e-07 40.5595 0 40.4484 0Z" fill="url(#paint1_linear_121_213)"/>
<path d="M40.4491 33.7891H25.6333C28.6224 39.7923 34.1741 44.7132 41.2656 47.6452C41.6176 47.612 41.9668 47.5611 42.3111 47.4928C43.1807 47.3212 44.0135 47.0438 44.7816 46.6699C45.9733 46.1083 46.9787 45.3182 47.7107 44.3683C48.4426 43.4184 48.879 42.3373 48.9818 41.2189C49.0597 40.2671 48.8968 39.3125 48.5032 38.4142C48.1096 37.5159 47.4938 36.6929 46.6938 35.9963C45.8939 35.2998 44.9269 34.7445 43.8527 34.3648C42.7785 33.9852 41.6201 33.7892 40.4491 33.7891Z" fill="url(#paint2_linear_121_213)"/>
<path d="M40.7674 0.00556183C33.8025 3.00919 28.3874 7.94425 25.5016 13.9179H40.1605C42.366 13.9394 44.5001 13.2819 46.136 12.0768C47.772 10.8717 48.789 9.20785 48.9838 7.41817C49.0881 6.15078 48.7641 4.88429 48.0472 3.75623C48.0472 3.75477 48.0465 3.75337 48.0452 3.75234C48.0439 3.7513 48.0422 3.75072 48.0404 3.75072C48.0368 3.74546 48.0344 3.73962 48.0337 3.73359C47.442 2.81802 46.6079 2.02097 45.5919 1.40005C44.5758 0.77913 43.4031 0.349846 42.1584 0.143229C41.7004 0.0653138 41.235 0.0192589 40.7674 0.00556183Z" fill="url(#paint3_linear_121_213)"/>
<g style="mix-blend-mode:multiply" opacity="0.08">
<path d="M32.424 33.7891H25.6354C28.624 39.792 34.1748 44.7129 41.2655 47.6452C41.6175 47.612 41.9667 47.5611 42.311 47.4928C38.4043 43.2363 35.0884 38.6404 32.424 33.7891Z" fill="black"/>
</g>
<g style="mix-blend-mode:multiply" opacity="0.08">
<path d="M40.7674 0.00556183C33.8025 3.00919 28.3874 7.94425 25.5016 13.9179H32.3939C35.0305 9.05262 38.3043 4.43347 42.1584 0.140781C41.7003 0.0636887 41.2349 0.0184529 40.7674 0.00556183Z" fill="black"/>
</g>
<g style="mix-blend-mode:screen" opacity="0.4">
<path d="M20.5398 1.69112H20.512C19.3781 1.6934 18.2647 1.93747 17.2826 2.39905C16.3005 2.86062 15.4839 3.52362 14.9139 4.3221L2.94183 21.2221C2.37488 22.0236 2.07646 22.9324 2.07646 23.8574C2.07646 24.7824 2.37488 25.6912 2.94183 26.4926L12.2497 39.6292L12.2842 39.6744L14.9132 43.3835C15.4378 44.1214 16.1737 44.7452 17.058 45.2016C17.9423 45.6579 18.949 45.9335 19.9922 46.0047C14.4971 39.7246 11.5025 32.2212 11.4134 24.5096C11.3243 16.7978 14.1451 9.24984 19.4942 2.88669L19.5423 2.82979L19.5633 2.80164C19.8803 2.42413 20.2078 2.05762 20.5398 1.69112Z" fill="white"/>
</g>
<g style="mix-blend-mode:screen" opacity="0.6">
<path d="M16.7612 47.0027C16.7537 46.9966 16.747 46.9966 16.7334 46.991C16.7414 46.9933 16.7484 46.9974 16.7537 47.0027H16.7612Z" fill="white"/>
</g>
<g style="mix-blend-mode:multiply" opacity="0.25">
<path d="M12.332 4.58891L1.14029 20.3784C0.391802 21.4372 -0.00215912 22.6375 -0.00215912 23.8593C-0.00215912 25.081 0.391802 26.2814 1.14029 27.3401L13.1116 44.2273C13.9472 45.4073 15.1917 46.3602 16.6892 46.9666C16.5923 46.9219 16.4263 46.8369 16.198 46.7133C15.6799 46.417 15.2 46.0787 14.7656 45.7037C14.1027 45.1244 13.5585 44.4621 13.1537 43.7421C12.6279 42.9081 12.0323 41.9677 11.3608 40.952C10.0463 38.9054 8.47497 36.5381 6.75942 34.0185C5.89413 32.7611 5.02208 31.4536 4.0952 30.14C3.63101 29.4804 3.16756 28.8208 2.70412 28.1557L2.00483 27.1578C1.78438 26.8545 1.59254 26.5382 1.43098 26.2112C0.776526 24.9281 0.666788 23.5036 1.11926 22.1638C1.35459 21.4951 1.7016 20.8559 2.15055 20.264C2.59296 19.6154 3.02936 18.9791 3.45825 18.3471C5.17455 15.822 6.74514 13.4522 8.06035 11.4135C10.5533 7.58761 12.1434 4.91014 12.332 4.58891Z" fill="black"/>
</g>
<g style="mix-blend-mode:multiply" opacity="0.25">
<path d="M40.7671 0.00556183L39.4519 0.529309L38.1585 1.10445L36.9056 1.73038L35.6881 2.40342L34.5111 3.13091L33.3694 3.89757L32.2757 4.71501L31.2309 5.5716L30.235 6.46796L29.2863 7.4041L28.394 8.37328L27.5565 9.37672L26.7745 10.4138L26.0482 11.4797L25.3902 12.573L24.9681 13.3685L24.7954 13.6052C23.6259 15.2059 22.4428 16.8016 21.2936 18.4138L19.5661 20.8435C18.9357 21.7638 18.6023 22.7993 18.5971 23.8532C18.6003 24.3783 18.6841 24.901 18.8465 25.4091C18.9289 25.6617 19.0292 25.9101 19.1469 26.1532C19.2654 26.3929 19.4018 26.6265 19.5555 26.8525L21.2921 29.2877C22.4413 30.8999 23.6244 32.495 24.7871 34.0963L25.0124 34.412H25.1371L25.5382 35.1462L26.2142 36.2402L26.9616 37.3054L27.7645 38.3425L28.6291 39.346L29.5424 40.3213L30.5114 41.2513L31.5359 42.1421L32.6017 42.9932L33.7224 43.8052L34.8919 44.5669L36.0892 45.2889L37.3345 45.954L38.6077 46.5738L39.9229 47.1379L41.2651 47.6452L39.9988 47.0192L38.7812 46.3541L37.5907 45.6493L36.4422 44.9108L35.3351 44.1331L34.2692 43.3212L33.2514 42.4701L32.275 41.5964L31.3481 40.6835L30.4761 39.7363L29.6453 38.772L28.8777 37.7747L28.1581 36.7541L27.4934 35.7054L26.8842 34.6402L26.4553 33.7891H25.4518L20.366 26.6188C19.7707 25.778 19.4574 24.8245 19.4574 23.8538C19.4574 22.8832 19.7707 21.9296 20.366 21.0888L25.4518 13.9185H26.3171L26.7392 13.0619L27.3274 12.0022L27.9643 10.962L28.6629 9.94146L29.414 8.94965L30.2207 7.97802L31.0717 7.02903L31.973 6.11615L32.9285 5.23631L33.926 4.38522L34.964 3.56227L36.0509 2.7791L37.1715 2.02896L38.3343 1.3186L39.5361 0.645562L40.7671 0.00556183Z" fill="black"/>
</g>
<g style="mix-blend-mode:screen" opacity="0.4">
<path d="M19.4952 2.88674L18.533 3.9685L17.564 5.17508C16.9416 5.99781 16.3557 6.83405 15.8064 7.68367C15.2596 8.54027 14.7614 9.41583 14.3117 10.3104C13.855 11.2012 13.4471 12.1086 13.0798 13.0276C12.3334 14.8654 11.7779 16.751 11.4191 18.6646C11.2321 19.6228 11.1006 20.5871 11.0113 21.5569C10.9144 22.5432 10.8791 23.4787 10.8866 24.4595C10.8866 25.4293 10.9414 26.3991 11.0315 27.3683L11.2118 28.8171L11.4604 30.2544L11.7857 31.6867L12.1732 33.1068L12.6299 34.5104L13.1632 35.903L13.7581 37.273L14.4228 38.619L15.1492 39.9492L15.9379 41.2512L16.8009 42.5208L17.721 43.7666L18.6975 44.9787L19.2931 45.6609C17.7008 45.4122 16.2822 44.6836 15.3204 43.6203C15.044 43.2991 14.8089 42.9663 14.5453 42.6279L13.7942 41.6245L12.2859 39.6745L14.9148 43.3835C15.4396 44.1215 16.1754 44.7452 17.0597 45.2016C17.944 45.658 18.9507 45.9335 19.9939 46.0047C14.4988 39.7247 11.5041 32.2213 11.4151 24.5096C11.326 16.7979 14.1461 9.24989 19.4952 2.88674Z" fill="white"/>
</g>
<g style="mix-blend-mode:screen" opacity="0.5">
<path d="M40.449 33.7891H33.8264C33.8264 33.7891 35.6291 33.9806 38.3384 34.1103C39.0099 34.1501 39.7505 34.1838 40.5166 34.2119C41.2746 34.255 42.0231 34.3742 42.7452 34.5668C44.2997 34.9952 45.6646 35.7876 46.6691 36.8447C47.1713 37.3788 47.576 37.9692 47.8708 38.5977C48.1376 39.2072 48.3097 39.8415 48.3831 40.4859C48.3831 40.6609 48.3899 40.8297 48.3899 40.9992L48.3966 41.2244L48.3756 41.4557C48.3565 41.7571 48.308 42.0569 48.2306 42.352C48.0868 42.9025 47.8613 43.4367 47.5591 43.9428C47.0896 44.7162 46.4599 45.4178 45.6978 46.017C45.4139 46.2373 45.1856 46.4062 45.0218 46.5132C44.8971 46.5922 44.8145 46.6485 44.78 46.6711C45.9717 46.1095 46.9771 45.3194 47.7091 44.3695C48.441 43.4196 48.8774 42.3385 48.9802 41.2201C49.0583 40.2684 48.8956 39.3137 48.5022 38.4153C48.1089 37.5169 47.4932 36.6939 46.6934 35.9972C45.8935 35.3005 44.9266 34.7451 43.8525 34.3653C42.7784 33.9855 41.62 33.7894 40.449 33.7891Z" fill="white"/>
</g>
<g style="mix-blend-mode:screen" opacity="0.5">
<path d="M48.0472 3.75671C48.075 3.82463 48.1718 4.07243 48.2898 4.46708C48.4769 5.09593 48.5719 5.74063 48.5729 6.38769C48.5705 6.81128 48.522 7.23389 48.428 7.65056C48.3845 7.87548 48.322 8.09771 48.241 8.31565C48.1996 8.42272 48.1658 8.5353 48.1238 8.64788C48.0817 8.76047 48.0194 8.87366 47.9736 8.98624C47.7467 9.44024 47.4686 9.87612 47.1428 10.2883C46.7962 10.7077 46.3948 11.0952 45.9455 11.4441C45.5057 11.8009 45.0185 12.1167 44.4929 12.3857C43.9783 12.6494 43.4337 12.8721 42.8667 13.0508C42.5971 13.1393 42.3212 13.2145 42.0405 13.276C41.7776 13.3435 41.5093 13.3962 41.2375 13.4338C40.968 13.4803 40.6953 13.5142 40.421 13.5354L40.2205 13.5525C40.1927 13.558 40.1379 13.5635 40.1379 13.5635L40.041 13.569C39.9096 13.5807 39.7773 13.5862 39.6534 13.5978C37.6186 13.733 36.2689 13.919 36.2689 13.919H40.1605C42.3659 13.9405 44.5001 13.283 46.136 12.0779C47.7719 10.8728 48.789 9.20896 48.9838 7.41928C49.0881 6.15164 48.7642 4.88496 48.0472 3.75671Z" fill="white"/>
</g>
</g>
<defs>
<linearGradient id="paint0_linear_121_213" x1="57.5217" y1="29" x2="73.5" y2="29" gradientUnits="userSpaceOnUse">
<stop offset="0.505208" stop-color="#FCC401"/>
<stop offset="0.9999" stop-color="#FCC401"/>
<stop offset="1" stop-color="#3E6896"/>
</linearGradient>
<linearGradient id="paint1_linear_121_213" x1="2.7627" y1="736.514" x2="2.7627" y2="707.549" gradientUnits="userSpaceOnUse">
<stop stop-color="#F80300"/>
<stop offset="0.033" stop-color="#F81000"/>
<stop offset="0.158" stop-color="#F93F00"/>
<stop offset="0.288" stop-color="#FA6800"/>
<stop offset="0.419" stop-color="#FA8900"/>
<stop offset="0.554" stop-color="#FBA300"/>
<stop offset="0.693" stop-color="#FBB500"/>
<stop offset="0.838" stop-color="#FBC000"/>
<stop offset="1" stop-color="#FCC400"/>
</linearGradient>
<linearGradient id="paint2_linear_121_213" x1="23.4601" y1="696.346" x2="23.4601" y2="716.133" gradientUnits="userSpaceOnUse">
<stop stop-color="#3E6896"/>
<stop offset="0.247" stop-color="#355881"/>
<stop offset="0.75" stop-color="#1F324E"/>
<stop offset="1" stop-color="#131D32"/>
</linearGradient>
<linearGradient id="paint3_linear_121_213" x1="-17.9758" y1="696.369" x2="-17.9758" y2="716.157" gradientUnits="userSpaceOnUse">
<stop stop-color="#3E6896"/>
<stop offset="0.247" stop-color="#355881"/>
<stop offset="0.75" stop-color="#1F324E"/>
<stop offset="1" stop-color="#131D32"/>
</linearGradient>
</defs>
</svg>
